<?xml version="1.0" standalone="no"?>
<svg xmlns:xlink="http://www.w3.org/1999/xlink" id="wave" style="transform:rotate(0deg); transition: 0.3s" viewBox="0 0 1440 490" version="1.1" xmlns="http://www.w3.org/2000/svg"><defs><linearGradient id="sw-gradient-0" x1="0" x2="0" y1="1" y2="0"><stop stop-color="rgba(62, 224.606, 243, 1)" offset="0%"/><stop stop-color="rgba(11, 131.02, 255, 1)" offset="100%"/></linearGradient></defs><path style="transform:translate(0, 0px); opacity:1" fill="url(#sw-gradient-0)" d="M0,98L60,138.8C120,180,240,261,360,294C480,327,600,310,720,302.2C840,294,960,294,1080,310.3C1200,327,1320,359,1440,359.3C1560,359,1680,327,1800,285.8C1920,245,2040,196,2160,163.3C2280,131,2400,114,2520,122.5C2640,131,2760,163,2880,204.2C3000,245,3120,294,3240,302.2C3360,310,3480,278,3600,236.8C3720,196,3840,147,3960,122.5C4080,98,4200,98,4320,81.7C4440,65,4560,33,4680,16.3C4800,0,4920,0,5040,24.5C5160,49,5280,98,5400,114.3C5520,131,5640,114,5760,106.2C5880,98,6000,98,6120,130.7C6240,163,6360,229,6480,236.8C6600,245,6720,196,6840,171.5C6960,147,7080,147,7200,196C7320,245,7440,343,7560,343C7680,343,7800,245,7920,228.7C8040,212,8160,278,8280,326.7C8400,376,8520,408,8580,424.7L8640,441L8640,490L8580,490C8520,490,8400,490,8280,490C8160,490,8040,490,7920,490C7800,490,7680,490,7560,490C7440,490,7320,490,7200,490C7080,490,6960,490,6840,490C6720,490,6600,490,6480,490C6360,490,6240,490,6120,490C6000,490,5880,490,5760,490C5640,490,5520,490,5400,490C5280,490,5160,490,5040,490C4920,490,4800,490,4680,490C4560,490,4440,490,4320,490C4200,490,4080,490,3960,490C3840,490,3720,490,3600,490C3480,490,3360,490,3240,490C3120,490,3000,490,2880,490C2760,490,2640,490,2520,490C2400,490,2280,490,2160,490C2040,490,1920,490,1800,490C1680,490,1560,490,1440,490C1320,490,1200,490,1080,490C960,490,840,490,720,490C600,490,480,490,360,490C240,490,120,490,60,490L0,490Z"/><defs><linearGradient id="sw-gradient-1" x1="0" x2="0" y1="1" y2="0"><stop stop-color="rgba(137.578, 207.269, 255, 1)" offset="0%"/><stop stop-color="rgba(134.473, 187.196, 241.659, 1)" offset="100%"/></linearGradient></defs><path style="transform:translate(0, 50px); opacity:0.9" fill="url(#sw-gradient-1)" d="M0,392L60,326.7C120,261,240,131,360,106.2C480,82,600,163,720,204.2C840,245,960,245,1080,220.5C1200,196,1320,147,1440,155.2C1560,163,1680,229,1800,236.8C1920,245,2040,196,2160,171.5C2280,147,2400,147,2520,122.5C2640,98,2760,49,2880,89.8C3000,131,3120,261,3240,294C3360,327,3480,261,3600,261.3C3720,261,3840,327,3960,326.7C4080,327,4200,261,4320,261.3C4440,261,4560,327,4680,318.5C4800,310,4920,229,5040,187.8C5160,147,5280,147,5400,155.2C5520,163,5640,180,5760,187.8C5880,196,6000,196,6120,187.8C6240,180,6360,163,6480,138.8C6600,114,6720,82,6840,73.5C6960,65,7080,82,7200,138.8C7320,196,7440,294,7560,277.7C7680,261,7800,131,7920,65.3C8040,0,8160,0,8280,49C8400,98,8520,196,8580,245L8640,294L8640,490L8580,490C8520,490,8400,490,8280,490C8160,490,8040,490,7920,490C7800,490,7680,490,7560,490C7440,490,7320,490,7200,490C7080,490,6960,490,6840,490C6720,490,6600,490,6480,490C6360,490,6240,490,6120,490C6000,490,5880,490,5760,490C5640,490,5520,490,5400,490C5280,490,5160,490,5040,490C4920,490,4800,490,4680,490C4560,490,4440,490,4320,490C4200,490,4080,490,3960,490C3840,490,3720,490,3600,490C3480,490,3360,490,3240,490C3120,490,3000,490,2880,490C2760,490,2640,490,2520,490C2400,490,2280,490,2160,490C2040,490,1920,490,1800,490C1680,490,1560,490,1440,490C1320,490,1200,490,1080,490C960,490,840,490,720,490C600,490,480,490,360,490C240,490,120,490,60,490L0,490Z"/><defs><linearGradient id="sw-gradient-2" x1="0" x2="0" y1="1" y2="0"><stop stop-color="rgba(0, 145.899, 232.552, 1)" offset="0%"/><stop stop-color="rgba(111.986, 191.651, 246.213, 1)" offset="100%"/></linearGradient></defs><path style="transform:translate(0, 100px); opacity:0.8" fill="url(#sw-gradient-2)" d="M0,245L60,277.7C120,310,240,376,360,392C480,408,600,376,720,302.2C840,229,960,114,1080,73.5C1200,33,1320,65,1440,89.8C1560,114,1680,131,1800,179.7C1920,229,2040,310,2160,351.2C2280,392,2400,392,2520,375.7C2640,359,2760,327,2880,277.7C3000,229,3120,163,3240,179.7C3360,196,3480,294,3600,343C3720,392,3840,392,3960,359.3C4080,327,4200,261,4320,253.2C4440,245,4560,294,4680,302.2C4800,310,4920,278,5040,236.8C5160,196,5280,147,5400,171.5C5520,196,5640,294,5760,285.8C5880,278,6000,163,6120,147C6240,131,6360,212,6480,269.5C6600,327,6720,359,6840,351.2C6960,343,7080,294,7200,261.3C7320,229,7440,212,7560,220.5C7680,229,7800,261,7920,294C8040,327,8160,359,8280,318.5C8400,278,8520,163,8580,106.2L8640,49L8640,490L8580,490C8520,490,8400,490,8280,490C8160,490,8040,490,7920,490C7800,490,7680,490,7560,490C7440,490,7320,490,7200,490C7080,490,6960,490,6840,490C6720,490,6600,490,6480,490C6360,490,6240,490,6120,490C6000,490,5880,490,5760,490C5640,490,5520,490,5400,490C5280,490,5160,490,5040,490C4920,490,4800,490,4680,490C4560,490,4440,490,4320,490C4200,490,4080,490,3960,490C3840,490,3720,490,3600,490C3480,490,3360,490,3240,490C3120,490,3000,490,2880,490C2760,490,2640,490,2520,490C2400,490,2280,490,2160,490C2040,490,1920,490,1800,490C1680,490,1560,490,1440,490C1320,490,1200,490,1080,490C960,490,840,490,720,490C600,490,480,490,360,490C240,490,120,490,60,490L0,490Z"/></svg>