<?xml version="1.0" standalone="no"?>
<svg xmlns:xlink="http://www.w3.org/1999/xlink" id="wave" style="transform:rotate(180deg); transition: 0.3s" viewBox="0 0 1440 490" version="1.1" xmlns="http://www.w3.org/2000/svg"><defs><linearGradient id="sw-gradient-0" x1="0" x2="0" y1="1" y2="0"><stop stop-color="rgba(0, 61.318, 164.249, 1)" offset="0%"/><stop stop-color="rgba(15.926, 169.966, 255, 1)" offset="100%"/></linearGradient></defs><path style="transform:translate(0, 0px); opacity:1" fill="url(#sw-gradient-0)" d="M0,441L60,383.8C120,327,240,212,360,155.2C480,98,600,98,720,114.3C840,131,960,163,1080,147C1200,131,1320,65,1440,73.5C1560,82,1680,163,1800,163.3C1920,163,2040,82,2160,106.2C2280,131,2400,261,2520,261.3C2640,261,2760,131,2880,98C3000,65,3120,131,3240,147C3360,163,3480,131,3600,171.5C3720,212,3840,327,3960,326.7C4080,327,4200,212,4320,163.3C4440,114,4560,131,4680,130.7C4800,131,4920,114,5040,98C5160,82,5280,65,5400,89.8C5520,114,5640,180,5760,236.8C5880,294,6000,343,6120,343C6240,343,6360,294,6480,245C6600,196,6720,147,6840,122.5C6960,98,7080,98,7200,81.7C7320,65,7440,33,7560,65.3C7680,98,7800,196,7920,245C8040,294,8160,294,8280,294C8400,294,8520,294,8580,294L8640,294L8640,490L8580,490C8520,490,8400,490,8280,490C8160,490,8040,490,7920,490C7800,490,7680,490,7560,490C7440,490,7320,490,7200,490C7080,490,6960,490,6840,490C6720,490,6600,490,6480,490C6360,490,6240,490,6120,490C6000,490,5880,490,5760,490C5640,490,5520,490,5400,490C5280,490,5160,490,5040,490C4920,490,4800,490,4680,490C4560,490,4440,490,4320,490C4200,490,4080,490,3960,490C3840,490,3720,490,3600,490C3480,490,3360,490,3240,490C3120,490,3000,490,2880,490C2760,490,2640,490,2520,490C2400,490,2280,490,2160,490C2040,490,1920,490,1800,490C1680,490,1560,490,1440,490C1320,490,1200,490,1080,490C960,490,840,490,720,490C600,490,480,490,360,490C240,490,120,490,60,490L0,490Z"/></svg>