<?xml version="1.0" standalone="no"?>
<svg xmlns:xlink="http://www.w3.org/1999/xlink" id="wave" style="transform:rotate(180deg); transition: 0.3s" viewBox="0 0 1440 490" version="1.1" xmlns="http://www.w3.org/2000/svg"><defs><linearGradient id="sw-gradient-0" x1="0" x2="0" y1="1" y2="0"><stop stop-color="rgba(0, 61.318, 164.249, 1)" offset="0%"/><stop stop-color="rgba(15.926, 169.966, 255, 1)" offset="100%"/></linearGradient></defs><path style="transform:translate(0, 0px); opacity:1" fill="url(#sw-gradient-0)" d="M0,392L80,359.3C160,327,320,261,480,196C640,131,800,65,960,57.2C1120,49,1280,98,1440,114.3C1600,131,1760,114,1920,89.8C2080,65,2240,33,2400,57.2C2560,82,2720,163,2880,196C3040,229,3200,212,3360,179.7C3520,147,3680,98,3840,98C4000,98,4160,147,4320,138.8C4480,131,4640,65,4800,98C4960,131,5120,261,5280,277.7C5440,294,5600,196,5760,204.2C5920,212,6080,327,6240,334.8C6400,343,6560,245,6720,204.2C6880,163,7040,180,7200,204.2C7360,229,7520,261,7680,294C7840,327,8000,359,8160,367.5C8320,376,8480,359,8640,334.8C8800,310,8960,278,9120,285.8C9280,294,9440,343,9600,351.2C9760,359,9920,327,10080,285.8C10240,245,10400,196,10560,155.2C10720,114,10880,82,11040,98C11200,114,11360,180,11440,212.3L11520,245L11520,490L11440,490C11360,490,11200,490,11040,490C10880,490,10720,490,10560,490C10400,490,10240,490,10080,490C9920,490,9760,490,9600,490C9440,490,9280,490,9120,490C8960,490,8800,490,8640,490C8480,490,8320,490,8160,490C8000,490,7840,490,7680,490C7520,490,7360,490,7200,490C7040,490,6880,490,6720,490C6560,490,6400,490,6240,490C6080,490,5920,490,5760,490C5600,490,5440,490,5280,490C5120,490,4960,490,4800,490C4640,490,4480,490,4320,490C4160,490,4000,490,3840,490C3680,490,3520,490,3360,490C3200,490,3040,490,2880,490C2720,490,2560,490,2400,490C2240,490,2080,490,1920,490C1760,490,1600,490,1440,490C1280,490,1120,490,960,490C800,490,640,490,480,490C320,490,160,490,80,490L0,490Z"/></svg>