<?xml version="1.0" standalone="no"?>
<svg xmlns:xlink="http://www.w3.org/1999/xlink" id="wave" style="transform:rotate(180deg); transition: 0.3s" viewBox="0 0 1440 490" version="1.1" xmlns="http://www.w3.org/2000/svg"><defs><linearGradient id="sw-gradient-0" x1="0" x2="0" y1="1" y2="0"><stop stop-color="rgba(0, 61.318, 164.249, 1)" offset="0%"/><stop stop-color="rgba(15.926, 169.966, 255, 1)" offset="100%"/></linearGradient></defs><path style="transform:translate(0, 0px); opacity:1" fill="url(#sw-gradient-0)" d="M0,441L60,400.2C120,359,240,278,360,204.2C480,131,600,65,720,65.3C840,65,960,131,1080,163.3C1200,196,1320,196,1440,187.8C1560,180,1680,163,1800,171.5C1920,180,2040,212,2160,187.8C2280,163,2400,82,2520,49C2640,16,2760,33,2880,89.8C3000,147,3120,245,3240,236.8C3360,229,3480,114,3600,130.7C3720,147,3840,294,3960,326.7C4080,359,4200,278,4320,261.3C4440,245,4560,294,4680,285.8C4800,278,4920,212,5040,187.8C5160,163,5280,180,5400,204.2C5520,229,5640,261,5760,253.2C5880,245,6000,196,6120,171.5C6240,147,6360,147,6480,155.2C6600,163,6720,180,6840,204.2C6960,229,7080,261,7200,253.2C7320,245,7440,196,7560,147C7680,98,7800,49,7920,32.7C8040,16,8160,33,8280,49C8400,65,8520,82,8580,89.8L8640,98L8640,490L8580,490C8520,490,8400,490,8280,490C8160,490,8040,490,7920,490C7800,490,7680,490,7560,490C7440,490,7320,490,7200,490C7080,490,6960,490,6840,490C6720,490,6600,490,6480,490C6360,490,6240,490,6120,490C6000,490,5880,490,5760,490C5640,490,5520,490,5400,490C5280,490,5160,490,5040,490C4920,490,4800,490,4680,490C4560,490,4440,490,4320,490C4200,490,4080,490,3960,490C3840,490,3720,490,3600,490C3480,490,3360,490,3240,490C3120,490,3000,490,2880,490C2760,490,2640,490,2520,490C2400,490,2280,490,2160,490C2040,490,1920,490,1800,490C1680,490,1560,490,1440,490C1320,490,1200,490,1080,490C960,490,840,490,720,490C600,490,480,490,360,490C240,490,120,490,60,490L0,490Z"/></svg>