<?xml version="1.0" standalone="no"?>
<svg xmlns:xlink="http://www.w3.org/1999/xlink" id="wave" style="transform:rotate(180deg); transition: 0.3s" viewBox="0 0 1440 490" version="1.1" xmlns="http://www.w3.org/2000/svg"><defs><linearGradient id="sw-gradient-0" x1="0" x2="0" y1="1" y2="0"><stop stop-color="rgba(0, 61.318, 164.249, 1)" offset="0%"/><stop stop-color="rgba(15.926, 169.966, 255, 1)" offset="100%"/></linearGradient></defs><path style="transform:translate(0, 0px); opacity:1" fill="url(#sw-gradient-0)" d="M0,294L120,269.5C240,245,480,196,720,147C960,98,1200,49,1440,98C1680,147,1920,294,2160,310.3C2400,327,2640,212,2880,196C3120,180,3360,261,3600,302.2C3840,343,4080,343,4320,343C4560,343,4800,343,5040,310.3C5280,278,5520,212,5760,212.3C6000,212,6240,278,6480,302.2C6720,327,6960,310,7200,269.5C7440,229,7680,163,7920,130.7C8160,98,8400,98,8640,130.7C8880,163,9120,229,9360,228.7C9600,229,9840,163,10080,147C10320,131,10560,163,10800,212.3C11040,261,11280,327,11520,359.3C11760,392,12000,392,12240,326.7C12480,261,12720,131,12960,65.3C13200,0,13440,0,13680,0C13920,0,14160,0,14400,16.3C14640,33,14880,65,15120,65.3C15360,65,15600,33,15840,40.8C16080,49,16320,98,16560,98C16800,98,17040,49,17160,24.5L17280,0L17280,490L17160,490C17040,490,16800,490,16560,490C16320,490,16080,490,15840,490C15600,490,15360,490,15120,490C14880,490,14640,490,14400,490C14160,490,13920,490,13680,490C13440,490,13200,490,12960,490C12720,490,12480,490,12240,490C12000,490,11760,490,11520,490C11280,490,11040,490,10800,490C10560,490,10320,490,10080,490C9840,490,9600,490,9360,490C9120,490,8880,490,8640,490C8400,490,8160,490,7920,490C7680,490,7440,490,7200,490C6960,490,6720,490,6480,490C6240,490,6000,490,5760,490C5520,490,5280,490,5040,490C4800,490,4560,490,4320,490C4080,490,3840,490,3600,490C3360,490,3120,490,2880,490C2640,490,2400,490,2160,490C1920,490,1680,490,1440,490C1200,490,960,490,720,490C480,490,240,490,120,490L0,490Z"/></svg>