<?xml version="1.0" standalone="no"?>
<svg xmlns:xlink="http://www.w3.org/1999/xlink" id="wave" style="transform:rotate(180deg); transition: 0.3s" viewBox="0 0 1440 490" version="1.1" xmlns="http://www.w3.org/2000/svg"><defs><linearGradient id="sw-gradient-0" x1="0" x2="0" y1="1" y2="0"><stop stop-color="rgba(0, 61.318, 164.249, 1)" offset="0%"/><stop stop-color="rgba(15.926, 169.966, 255, 1)" offset="100%"/></linearGradient></defs><path style="transform:translate(0, 0px); opacity:1" fill="url(#sw-gradient-0)" d="M0,392L80,334.8C160,278,320,163,480,98C640,33,800,16,960,24.5C1120,33,1280,65,1440,89.8C1600,114,1760,131,1920,114.3C2080,98,2240,49,2400,65.3C2560,82,2720,163,2880,236.8C3040,310,3200,376,3360,408.3C3520,441,3680,441,3840,375.7C4000,310,4160,180,4320,147C4480,114,4640,180,4800,187.8C4960,196,5120,147,5280,114.3C5440,82,5600,65,5760,89.8C5920,114,6080,180,6240,228.7C6400,278,6560,310,6720,294C6880,278,7040,212,7200,179.7C7360,147,7520,147,7680,163.3C7840,180,8000,212,8160,261.3C8320,310,8480,376,8640,359.3C8800,343,8960,245,9120,245C9280,245,9440,343,9600,351.2C9760,359,9920,278,10080,228.7C10240,180,10400,163,10560,147C10720,131,10880,114,11040,163.3C11200,212,11360,327,11440,383.8L11520,441L11520,490L11440,490C11360,490,11200,490,11040,490C10880,490,10720,490,10560,490C10400,490,10240,490,10080,490C9920,490,9760,490,9600,490C9440,490,9280,490,9120,490C8960,490,8800,490,8640,490C8480,490,8320,490,8160,490C8000,490,7840,490,7680,490C7520,490,7360,490,7200,490C7040,490,6880,490,6720,490C6560,490,6400,490,6240,490C6080,490,5920,490,5760,490C5600,490,5440,490,5280,490C5120,490,4960,490,4800,490C4640,490,4480,490,4320,490C4160,490,4000,490,3840,490C3680,490,3520,490,3360,490C3200,490,3040,490,2880,490C2720,490,2560,490,2400,490C2240,490,2080,490,1920,490C1760,490,1600,490,1440,490C1280,490,1120,490,960,490C800,490,640,490,480,490C320,490,160,490,80,490L0,490Z"/></svg>