<?xml version="1.0" standalone="no"?>
<svg xmlns:xlink="http://www.w3.org/1999/xlink" id="wave" style="transform:rotate(180deg); transition: 0.3s" viewBox="0 0 1440 490" version="1.1" xmlns="http://www.w3.org/2000/svg"><defs><linearGradient id="sw-gradient-0" x1="0" x2="0" y1="1" y2="0"><stop stop-color="rgba(0, 61.318, 164.249, 1)" offset="0%"/><stop stop-color="rgba(15.926, 169.966, 255, 1)" offset="100%"/></linearGradient></defs><path style="transform:translate(0, 0px); opacity:1" fill="url(#sw-gradient-0)" d="M0,245L120,212.3C240,180,480,114,720,89.8C960,65,1200,82,1440,98C1680,114,1920,131,2160,179.7C2400,229,2640,310,2880,302.2C3120,294,3360,196,3600,179.7C3840,163,4080,229,4320,269.5C4560,310,4800,327,5040,326.7C5280,327,5520,310,5760,302.2C6000,294,6240,294,6480,277.7C6720,261,6960,229,7200,204.2C7440,180,7680,163,7920,130.7C8160,98,8400,49,8640,73.5C8880,98,9120,196,9360,228.7C9600,261,9840,229,10080,187.8C10320,147,10560,98,10800,98C11040,98,11280,147,11520,212.3C11760,278,12000,359,12240,326.7C12480,294,12720,147,12960,147C13200,147,13440,294,13680,294C13920,294,14160,147,14400,147C14640,147,14880,294,15120,302.2C15360,310,15600,180,15840,171.5C16080,163,16320,278,16560,310.3C16800,343,17040,294,17160,269.5L17280,245L17280,490L17160,490C17040,490,16800,490,16560,490C16320,490,16080,490,15840,490C15600,490,15360,490,15120,490C14880,490,14640,490,14400,490C14160,490,13920,490,13680,490C13440,490,13200,490,12960,490C12720,490,12480,490,12240,490C12000,490,11760,490,11520,490C11280,490,11040,490,10800,490C10560,490,10320,490,10080,490C9840,490,9600,490,9360,490C9120,490,8880,490,8640,490C8400,490,8160,490,7920,490C7680,490,7440,490,7200,490C6960,490,6720,490,6480,490C6240,490,6000,490,5760,490C5520,490,5280,490,5040,490C4800,490,4560,490,4320,490C4080,490,3840,490,3600,490C3360,490,3120,490,2880,490C2640,490,2400,490,2160,490C1920,490,1680,490,1440,490C1200,490,960,490,720,490C480,490,240,490,120,490L0,490Z"/></svg>